<?xml version="1.0" encoding="UTF-8" standalone="no"?>
<svg
  fill="#0b66c3"
  version="1.1"
  width="100"
  height="99.52607"
  viewBox="61.8 0 21.1 20.900475"
  xmlns="http://www.w3.org/2000/svg"
  xmlns:svg="http://www.w3.org/2000/svg">
  <path
    d="M 81.3,-0.04976285 H 63.4 c -0.8,0 -1.5,0.7 -1.6,1.50000005 V 19.450237 c 0,0.8 0.7,1.5 1.6,1.5 h 17.9 c 0.8,0 1.5,-0.7 1.6,-1.5 V 1.4502372 c 0,-0.80000005 -0.7,-1.50000005 -1.6,-1.50000005 z M 68.1,17.850237 H 65 V 7.8502372 h 3.1 z M 66.5,6.4502372 c -1,0 -1.8,-0.8 -1.8,-1.8 0,-1 0.8,-1.8 1.8,-1.8 1,0 1.8,0.8 1.8,1.8 0,1 -0.8,1.8 -1.8,1.8 z M 79.8,17.850237 h -3.1 v -4.9 c 0,-1.2 0,-2.7 -1.6,-2.7 -1.6,0 -1.9,1.3 -1.9,2.6 v 5 H 70.1 V 7.8502372 h 3 v 1.4 c 0.6,-1 1.7,-1.7 2.9,-1.6 3.2,0 3.7,2.1 3.7,4.7999998 z"
  />
</svg>