<?xml version="1.0" encoding="UTF-8" standalone="no"?>
<svg
   x="0px"
   y="0px"
   viewBox="0 0 403.69502 403.29999"
   class="logo"
   version="1.1"
   id="svg24"
   width="403.69501"
   height="403.29999"
   xmlns="http://www.w3.org/2000/svg"
   xmlns:svg="http://www.w3.org/2000/svg">
  <defs
     id="defs24" />
  <g
     id="g23"
     transform="translate(0.7,-5.8)">
    <path
       class="st0"
       fill="#6cb52d"
       d="M 366.9,29 C 361.1,43.1 353.6,55.6 345.3,66.8 308.7,29.5 257.5,5.8 201,5.8 90,5.8 -0.7,96 -0.7,207.4 -0.7,265.6 24.2,318 63.7,355 l 7.5,6.7 c 34.9,29.5 80.3,47.4 129.7,47.4 106,0 193.3,-82.7 200.8,-187.1 6,-50.7 -9.4,-115.6 -34.8,-193 z m -274,327.7 c -5.8,7.5 -16.6,8.3 -24.1,2.5 -7.5,-5.8 -8.3,-16.6 -2.5,-24.1 5.8,-7.5 16.6,-8.3 24.1,-2.5 7.1,5.8 8.3,16.6 2.5,24.1 z m 272.8,-60.3 c -49.5,66.1 -155.9,43.7 -223.7,47 0,0 -12.1,0.8 -24.1,2.5 0,0 4.6,-2.1 10.4,-4.2 47.8,-16.6 70.3,-20 99.4,-34.9 54.5,-27.9 108.9,-89 119.8,-152.2 -20.8,60.7 -84,113.1 -141.4,134.3 -39.5,14.6 -110.6,28.7 -110.6,28.7 l -2.9,-1.7 C 44.4,292.2 42.7,187.4 130.9,153.7 c 38.7,-15 75.3,-6.7 117.3,-16.6 44.5,-10.4 96.1,-43.7 116.8,-87.3 23.1,70.3 51.4,179.2 0.7,246.6 z"
       id="path1" />
  </g>
  <path
     class="st1"
     fill="#ffffff"
     d="m 93.6,350.9 c -5.8,7.5 -16.6,8.3 -24.1,2.5 -7.5,-5.8 -8.3,-16.6 -2.5,-24.1 5.8,-7.5 16.6,-8.3 24.1,-2.5 7.1,5.8 8.3,16.6 2.5,24.1 z"
     id="path23" />
  <path
     class="st3"
     fill="#ffffff"
     d="m 366.4,290.6 c -49.5,66.1 -155.9,43.7 -223.7,47 0,0 -12.1,0.8 -24.1,2.5 0,0 4.6,-2.1 10.4,-4.2 47.8,-16.6 70.3,-20 99.4,-34.9 54.5,-27.9 108.9,-89 119.8,-152.2 -20.8,60.7 -84,113.1 -141.4,134.3 -39.5,14.6 -110.6,28.7 -110.6,28.7 l -2.9,-1.7 C 45.1,286.4 43.4,181.6 131.6,147.9 c 38.7,-15 75.3,-6.7 117.3,-16.6 44.5,-10.4 96.1,-43.7 116.8,-87.3 23.1,70.3 51.4,179.2 0.7,246.6 z"
     id="path24" />
</svg>
