<?xml version="1.0" encoding="UTF-8" standalone="no"?>
<svg
   width="32"
   height="32"
   viewBox="0 0 76 32"
   fill="none"
   version="1.1"
   id="svg7"
   sodipodi:docname="Jira_Logo.svg"
   inkscape:version="1.4 (e7c3feb, 2024-10-09)"
   xmlns:inkscape="http://www.inkscape.org/namespaces/inkscape"
   xmlns:sodipodi="http://sodipodi.sourceforge.net/DTD/sodipodi-0.dtd"
   xmlns="http://www.w3.org/2000/svg"
   xmlns:svg="http://www.w3.org/2000/svg">
  <sodipodi:namedview
     id="namedview7"
     pagecolor="#505050"
     bordercolor="#eeeeee"
     borderopacity="1"
     inkscape:showpageshadow="0"
     inkscape:pageopacity="0"
     inkscape:pagecheckerboard="0"
     inkscape:deskcolor="#505050"
     inkscape:zoom="16"
     inkscape:cx="16.75"
     inkscape:cy="23.84375"
     inkscape:window-width="1920"
     inkscape:window-height="1020"
     inkscape:window-x="0"
     inkscape:window-y="0"
     inkscape:window-maximized="1"
     inkscape:current-layer="logo-gradient-blue-jira" />
  <g
     id="logo-gradient-blue-jira">
    <g
       id="Icon"
       transform="matrix(2.9524155,0,0,2.9524155,0,-29.757359)">
      <path
         id="Vector"
         d="M 24.664,3 H 12.2603 c 0,2.99443 2.5094,5.43176 5.5924,5.43176 h 2.2943 v 2.12394 c 0,2.9944 2.5095,5.4318 5.5925,5.4318 V 4.04457 C 25.7395,3.45265 25.2735,3 24.664,3 Z"
         fill="#2684ff" />
      <path
         id="Vector_2"
         d="M 18.5339,8.98877 H 6.13013 c 0,2.99443 2.50943,5.43173 5.59247,5.43173 h 2.2943 v 2.1588 c 0,2.9944 2.5095,5.4318 5.5925,5.4318 V 10.0333 c 0,-0.55707 -0.4661,-1.04453 -1.0755,-1.04453 z"
         fill="url(#paint0_linear)"
         style="fill:url(#paint0_linear)" />
      <path
         id="Vector_3"
         d="M 12.4038,15.0125 H 0 c 0,2.9944 2.50943,5.4317 5.59245,5.4317 h 2.29434 v 2.124 c 0,2.9944 2.50941,5.4317 5.59241,5.4317 V 16.057 c 0,-0.5919 -0.5018,-1.0445 -1.0754,-1.0445 z"
         fill="url(#paint1_linear)"
         style="fill:url(#paint1_linear)" />
    </g>
  </g>
  <defs
     id="defs7">
    <linearGradient
       id="paint0_linear"
       x1="19.3455"
       y1="9.01882"
       x2="14.2302"
       y2="14.45"
       gradientUnits="userSpaceOnUse">
      <stop
         offset="0.176"
         stop-color="#0052CC"
         id="stop4" />
      <stop
         offset="1"
         stop-color="#2684FF"
         id="stop5" />
    </linearGradient>
    <linearGradient
       id="paint1_linear"
       x1="13.5601"
       y1="15.0525"
       x2="7.63562"
       y2="20.9874"
       gradientUnits="userSpaceOnUse">
      <stop
         offset="0.176"
         stop-color="#0052CC"
         id="stop6" />
      <stop
         offset="1"
         stop-color="#2684FF"
         id="stop7" />
    </linearGradient>
  </defs>
</svg>
