<?xml version="1.0" encoding="UTF-8" standalone="no"?>
<!-- Uploaded to: SVG Repo, www.svgrepo.com, Generator: SVG Repo Mixer Tools -->

<svg
   width="326.3049"
   height="320.30423"
   viewBox="-18.458 -22.75 77.966885 76.533092"
   version="1.1"
   id="svg5"
   xmlns="http://www.w3.org/2000/svg"
   xmlns:svg="http://www.w3.org/2000/svg">
  <defs
     id="defs5" />
  <path
     d="M -168.14708,-56.853289 H 103.17919 V 131.20755 h -271.32627 z"
     fill="none"
     id="path1"
     style="stroke-width:1.41943" />
  <path
     d="m 53.352792,36.443282 c -4.24411,-0.107877 -7.5301,0.319373 -10.28806,1.486148 -0.7963,0.317953 -2.06244,0.317953 -2.17315,1.324332 0.43009,0.42583 0.47977,1.112836 0.85308,1.700482 0.6359,1.060317 1.74448,2.486849 2.75654,3.230632 1.11141,0.851661 2.22709,1.694805 3.3967,2.437169 2.06244,1.276071 4.40025,2.018435 6.41017,3.290248 1.17103,0.739525 2.33497,1.696224 3.50742,2.492527 0.57629,0.424411 0.94534,1.112836 1.69339,1.37827 v -0.161815 c -0.37473,-0.47693 -0.48119,-1.166775 -0.84883,-1.697643 l -1.5926,-1.535828 c -1.53867,-2.066696 -3.45065,-3.870797 -5.51308,-5.352687 -1.69765,-1.169613 -5.41089,-2.75938 -6.09931,-4.71536 l -0.10788,-0.107877 c 1.16678,-0.109296 2.55072,-0.532288 3.6593,-0.857338 1.8041,-0.475511 3.44923,-0.367634 5.30017,-0.843144 0.85166,-0.212915 1.69622,-0.479769 2.55072,-0.742364 v -0.47835 c -0.95953,-0.955279 -1.6437,-2.224253 -2.65292,-3.127013 -2.69976,-2.332131 -5.6749,-4.613161 -8.74939,-6.5223 -1.64655,-1.063157 -3.76434,-1.747324 -5.51734,-2.651503 -0.63165,-0.319373 -1.69623,-0.47693 -2.06812,-1.007799 -0.95102,-1.166775 -1.48615,-2.702602 -2.17599,-4.083712 -1.53299,-2.914098 -3.02198,-6.147569 -4.34489,-9.229161 -0.9567,-2.0666963 -1.53867,-4.1305543 -2.70544,-6.0425313 -5.46482,-9.013408 -11.39948,-14.472552 -20.5207596,-19.8309157 -1.96024,-1.115675 -4.29237,-1.591185 -6.78348,-2.175992 l -3.97867,-0.210077 c -0.84882,-0.371891 -1.69906,-1.381109 -2.44001,-1.858039 -3.02623,-1.907719 -10.8175074,-6.042531 -13.0431804,-0.583387 -1.433628,3.450644 2.120635,6.843092 3.341349,8.593254 0.90134,1.215036 2.069531,2.5975647 2.699761,3.9772547 0.37331,0.901341 0.47835,1.858039 0.85166,2.81048 0.84882,2.333549 1.6422904,4.92969495 2.7579604,7.107107 0.58197,1.109997 1.21646,2.276772 1.96024,3.281732 0.42583,0.587645 1.16678,0.847402 1.32859,1.80552 -0.73952,1.056059 -0.79772,2.6500833 -1.22213,3.9758353 -1.90772,5.991432 -1.16252,13.413653 1.54151,17.816738 0.84598,1.325752 2.86441,4.244108 5.56418004,3.125594 2.39031996,-0.95386 1.86087996,-3.975835 2.54787996,-6.625919 0.15756,-0.640164 0.0539,-1.060317 0.37189,-1.48047 v 0.103619 c 0.73953,1.483309 1.48615,2.912679 2.17174,4.400246 1.64512,2.596145 4.5095396,5.301587 6.8956096,7.10001 1.27039,0.959538 2.27677,2.600404 3.86796,3.18663 v -0.158977 h -0.10504 c -0.32221,-0.47551 -0.79346,-0.688425 -1.21646,-1.057478 -0.95669,-0.955279 -2.01559,-2.122054 -2.75796,-3.180952 -2.22283,-2.970876 -4.1901696,-6.259705 -5.9360696,-9.653572 -0.8545,-1.646544 -1.59119,-3.446387 -2.27961,-5.090091 -0.32079,-0.634487 -0.32079,-1.591186 -0.85308,-1.910559 -0.79772,1.165356 -1.96024,2.174573 -2.54220996,3.602524 -1.00922,2.28387 -1.11425,5.09293 -1.48898,8.014126 l -0.20866,0.102199 C -2.5218176,29.388694 -3.1094576,27.641371 -3.7510476,26.158062 c -1.58835,-3.767178 -1.8552,-9.813968 -0.47693,-14.160276 0.36905,-1.111417 1.96592,-4.6117413 1.32859,-5.6706393 -0.31937,-1.014896 -1.38111,-1.592605 -1.96308,-2.391747 -0.68416,-1.004959 -1.43362,-2.276772 -1.91055,-3.39244805 -1.27182,-2.96803695 -1.91198,-6.25686595 -3.2817404,-9.22348295 -0.64016,-1.3825287 -1.75158,-2.8133187 -2.6515,-4.0865507 -1.010636,-1.43079 -2.122053,-2.438588 -2.921194,-4.134812 -0.264015,-0.583387 -0.634487,-1.537247 -0.210077,-2.171734 0.103619,-0.425831 0.319373,-0.584807 0.742365,-0.691265 0.687006,-0.580548 2.650086,0.157557 3.338506,0.47693 1.9659204,0.794883 3.6096204,1.537247 5.2504904,2.650084 0.74236,0.532288 1.53867,1.540086 2.49111,1.80552 h 1.11567 c 1.69339,0.369053 3.60253004,0.102199 5.19655,0.581968 2.80906,0.90276 5.35411,2.227092 7.63656,3.656463 6.9452896,4.4045037 12.6727096,10.66278865 16.5392396,18.1375297 0.63449,1.217874 0.90418,2.33355 1.48331,3.6039433 1.1171,2.600404 2.49821,5.251907 3.60679,7.796952 1.11425,2.491107 2.17599,5.034733 3.76717,7.104268 0.79347,1.112837 3.98152,1.696224 5.41089,2.279612 1.05748,0.47551 2.70402,0.898502 3.65788,1.481889 1.8041,1.111417 3.6011,2.387488 5.29733,3.609621 0.84456,0.635907 3.4989,1.961658 3.65646,3.023395 M -0.73616756,-9.6372303 a 8.261107,8.261107 0 0 0 -2.17031004,0.266854 v 0.106457 h 0.10219 c 0.42725,0.847403 1.16962,1.435048 1.69907,2.174574 0.42725004,0.850241 0.79772004,1.693385 1.21645004,2.542206 l 0.1022,-0.105038 c 0.74804,-0.529449 1.11993996,-1.37827 1.11993996,-2.651503 -0.32222,-0.374731 -0.37189996,-0.740945 -0.64016996,-1.112836 -0.31228,-0.530869 -1.0007,-0.794883 -1.42937,-1.220714"
     fill="#5d87a1"
     id="path4"
     style="stroke-width:1.41943" />
</svg>
