<?xml version="1.0" encoding="UTF-8" standalone="no"?>
<svg
   id="Layer_1"
   data-name="Layer 1"
   viewBox="0 0 293.29425 190.94562"
   version="1.1"
   sodipodi:docname="mariadb-logo-white.svg"
   width="293.29425"
   height="190.94562"
   inkscape:version="1.4 (e7c3feb, 2024-10-09)"
   xmlns:inkscape="http://www.inkscape.org/namespaces/inkscape"
   xmlns:sodipodi="http://sodipodi.sourceforge.net/DTD/sodipodi-0.dtd"
   xmlns="http://www.w3.org/2000/svg"
   xmlns:svg="http://www.w3.org/2000/svg">
  <sodipodi:namedview
     id="namedview8"
     pagecolor="#505050"
     bordercolor="#eeeeee"
     borderopacity="1"
     inkscape:showpageshadow="0"
     inkscape:pageopacity="0"
     inkscape:pagecheckerboard="0"
     inkscape:deskcolor="#505050"
     inkscape:zoom="1.6543578"
     inkscape:cx="113.33703"
     inkscape:cy="120.5906"
     inkscape:window-width="1920"
     inkscape:window-height="1020"
     inkscape:window-x="0"
     inkscape:window-y="0"
     inkscape:window-maximized="1"
     inkscape:current-layer="Layer_1" />
  <defs
     id="defs1">
    <style
       id="style1">.cls-1{fill:#fff;}</style>
  </defs>
  <title
     id="title1">MDB-VLogo_White</title>
  <path
     class="cls-1"
     d="m 291.98,1.0016513 a 4.2,4.2 0 0 0 -2.84,-0.99999996 c -2.84,0 -6.5,1.91999996 -8.46,2.99999996 l -0.79,0.4 a 26.81,26.81 0 0 1 -10.57,2.66 c -3.76,0.12 -7,0.34 -11.22,0.77 -25,2.58 -36.15,21.7399997 -46.89,40.2699997 -5.84,10.08 -11.88,20.5 -20.16,28.57 a 55.71,55.71 0 0 1 -5.46,4.63 c -8.57,6.39 -19.33,10.9 -27.74,14.12 -8.07,3.08 -16.86,5.849999 -25.37,8.529999 -7.78,2.45 -15.14,4.76 -21.9,7.28 -3.05,1.13 -5.64,2 -7.93,2.76 -6.15,2 -10.6,3.53 -17.08,8 -2.53,1.73 -5.07,3.6 -6.8,5 a 71.26,71.26 0 0 0 -13.54,14.27 84.81,84.81 0 0 1 -11.37,13.69 c -1.36,1.34 -3.8,2 -7.43,2 -4.27,0 -9.43,-0.88 -14.91,-1.81 -5.48,-0.93 -11.46,-2 -16.46,-2 -4.07,0 -7.17,0.66 -9.5,2 0,0 -3.9,2.28 -5.56,5.23 l 1.62,0.73 a 33.56,33.56 0 0 1 6.93,5 33.68,33.68 0 0 0 7.19,5.12 6.37,6.37 0 0 1 2.24,1.45 c -0.69,1 -1.69,2.29 -2.74,3.67 -5.77,7.55 -9.13,12.32 -7.2,14.92 a 6,6 0 0 0 3,0.68 c 12.59,0 19.34,-3.27 27.9,-7.41 2.47,-1.2 5,-2.44 8,-3.7 5,-2.17 10.38,-5.63 16.08,-9.29 7.55,-4.85 15.36,-9.87 22.92,-12.3 a 62.3,62.3 0 0 1 19.23,-2.7 c 8,0 16.42,1.07 24.54,2.11 6.06,0.78 12.32,1.58 18.47,2 2.39,0.14 4.6,0.21 6.76,0.21 a 78.48,78.48 0 0 0 8.61,-0.45 l 0.68,-0.24 c 4.32,-2.65 6.34,-8.34 8.29,-13.84 1.26,-3.54 2.32,-6.72 4,-8.74 a 2.06,2.06 0 0 1 0.33,-0.27 0.4,0.4 0 0 1 0.49,0.08 0.25,0.25 0 0 1 0,0.16 c -1,21.51 -9.67,35.16 -18.42,47.3 l -5.94,6.23 c 0,0 8.18,0 12.84,-1.8 17,-5.08 29.84,-16.28 39.18,-34.14 a 144.39,144.39 0 0 0 6.16,-14.09 c 0.16,-0.4 1.64,-1.14 1.49,0.93 0,0.61 -0.08,1.29 -0.13,2 v 0 c 0,0.42 -0.06,0.85 -0.08,1.28 -0.25,3 -1,9.34 -1,9.34 l 5.25,-2.81 c 12.66,-8 22.42,-24.14 29.82,-49.25 3.09,-10.459999 5.34,-20.849999 7.33,-29.999999 2.38,-11 4.43,-20.43 6.78,-24.09 3.69,-5.74 9.32,-9.62 14.77,-13.39 0.75,-0.51 1.49,-1 2.22,-1.54 6.86,-4.81 13.67,-10.36 15.16,-20.71 v -0.23 c 1.14,-7.7199997 0.21,-9.6399997 -0.79,-10.5899997 z"
     id="path8" />
</svg>
